# xmcd
#
# Track frame offsets:
#	150
#	24478
#	45852
#	73977
#	89727
#	119258
#	141758
#	169883
#	196847
#	220506
#	249756
#	281255
#	297005
#	313458
#
# Disc length: 4316 seconds
#
# Revision: 0
# Processed by: cddbd v1.5.2PL0 Copyright (c) Steve Scherf et al.
# Submitted via: EasyCDDAExtractor 10.2.0.1
#
DISCID=c910da0e
DTITLE=Various Artist - Azuli Presents: Miami 09 (Mixed by David Piccioni) CD
DTITLE=2
DYEAR=2009
DGENRE=House
TTITLE0=Deadmau5 - Slip (Original Mix)
TTITLE1=D Ramirez - Reminder Of Jasper (Angel Anx Remix)
TTITLE2=Fabrice Dayan - Let It Go (Ultravox Remix) - Fabrice Dayan - Let It Go
TTITLE2=(Ultravox Remix)
TTITLE3=Shonky -  Donkey Kong
TTITLE4=Funkagenda and Exacta - Mad Money (Original Redux)
TTITLE5=Thomas Schumacher - Picanha (Original Mix)
TTITLE6=Steven Lee and Gaby Dershin feat Sam Obernik - Me, You and Space (Dean Col
TTITLE6=eman Vocal Mix)
TTITLE7=Dean Coleman feat DCLA - I Want You (Sultan and Ned Shepard Remix)
TTITLE8=The Hamptons - Simple (Kamisshake Remix)
TTITLE9=Dino Lenny feat Ann Nesby - The Pressure (Lenny and Amnesia Mix)
TTITLE10=Dubfire and Oliver Huntemann - Huntemann - Dios
TTITLE11=Marc Romboy - Sonora (Hugo Remix)
TTITLE12=Justin Martin - My Angelic Demons (Original)
TTITLE13=Dave Aju - Crazy Place (Luciano Remix)
EXTD=
EXTT0=
EXTT1=
EXTT2=
EXTT3=
EXTT4=
EXTT5=
EXTT6=
EXTT7=
EXTT8=
EXTT9=
EXTT10=
EXTT11=
EXTT12=
EXTT13=
PLAYORDER=
